<svg xmlns="http://www.w3.org/2000/svg" viewBox="0 0 200 80" role="img" aria-labelledby="title desc">
  <title id="title">Iron Dillo Armadillo Logo</title>
  <desc id="desc">Minimalist armadillo icon representing resilient cybersecurity from Iron Dillo.</desc>
  <rect x="0" y="0" width="200" height="80" rx="16" fill="#1A1A1A" />
  <path d="M38 52c1-19 19-38 54-38s53 19 54 38H38z" fill="#6B7B3C" />
  <path d="M52 52c2-13 14-26 40-26s38 13 40 26H52z" fill="#55622F" opacity="0.85" />
  <path d="M66 52c2-8 11-16 26-16s24 8 26 16H66z" fill="#4A4A4A" opacity="0.85" />
  <ellipse cx="148" cy="44" rx="12" ry="15" fill="#4A4A4A" />
  <circle cx="152" cy="43" r="4" fill="#F8F9FA" />
  <path d="M160 50c6 0 12 4 12 9 0 3-2 5-4 5-5 0-10-9-8-14z" fill="#6B7B3C" />
  <path d="M36 53h128" stroke="#F8F9FA" stroke-width="2" stroke-linecap="round" opacity="0.4" />
  <rect x="60" y="53" width="12" height="10" rx="3" fill="#1A1A1A" />
  <rect x="88" y="53" width="12" height="10" rx="3" fill="#1A1A1A" />
  <rect x="116" y="53" width="12" height="10" rx="3" fill="#1A1A1A" />
  <path d="M32 46l-8 10 8 10" fill="#4A4A4A" />
  <text x="28" y="24" font-family="'Inter', sans-serif" font-size="16" fill="#F8F9FA">IRON DILLO</text>
  <text x="28" y="40" font-family="'Inter', sans-serif" font-size="12" fill="#F8F9FA" opacity="0.8">CYBERSECURITY</text>
</svg>
